<?xml version="1.0" standalone="no"?>
<!DOCTYPE svg PUBLIC "-//W3C//DTD SVG 20010904//EN"
 "http://www.w3.org/TR/2001/REC-SVG-20010904/DTD/svg10.dtd">
<svg version="1.0" xmlns="http://www.w3.org/2000/svg"
 width="970.000000pt" height="855.000000pt" viewBox="0 0 970.000000 855.000000"
 preserveAspectRatio="xMidYMid meet">

<g transform="translate(0.000000,855.000000) scale(0.100000,-0.100000)"
fill="#000000" stroke="none">
<path d="M4435 8500 c-820 -59 -1510 -310 -2185 -794 -880 -631 -1485 -1577
-1684 -2636 -115 -609 -96 -1260 55 -1862 146 -582 427 -1131 843 -1648 126
-156 393 -426 551 -556 544 -450 1190 -763 1845 -893 330 -66 532 -85 875 -85
266 1 394 10 640 45 1119 162 2160 802 2814 1732 621 882 877 1921 746 3017
-62 510 -231 1039 -475 1480 -205 372 -433 675 -729 971 -333 333 -656 566
-1086 784 -469 238 -931 374 -1460 430 -180 19 -583 27 -750 15z m725 -725
c732 -92 1440 -421 1979 -919 572 -528 970 -1292 1085 -2086 86 -591 14 -1231
-201 -1775 -291 -739 -798 -1346 -1463 -1750 -124 -76 -358 -193 -490 -246
-90 -35 -267 -99 -277 -99 -2 0 -3 298 -3 663 0 677 -2 729 -41 862 -36 127
-142 284 -257 380 -39 32 -70 60 -69 61 1 2 61 10 132 19 839 106 1327 399
1520 912 58 152 95 322 116 521 15 144 7 458 -15 577 -50 273 -157 512 -323
716 l-53 66 19 64 c44 145 56 229 56 399 0 123 -5 187 -19 250 -21 96 -67 232
-102 302 l-24 46 -77 -4 c-323 -20 -532 -101 -913 -353 l-115 -77 -115 23
c-279 54 -596 76 -915 63 -264 -11 -345 -21 -680 -81 l-70 -12 -100 70 c-349
245 -580 339 -890 363 -140 10 -129 17 -176 -104 -76 -198 -106 -398 -88 -600
9 -102 43 -283 63 -336 4 -9 -12 -37 -40 -70 -241 -289 -354 -628 -354 -1062
0 -420 85 -758 253 -1007 218 -324 624 -534 1228 -636 81 -13 183 -27 228 -31
44 -4 81 -10 81 -13 0 -3 -16 -17 -35 -30 -57 -38 -160 -154 -204 -228 -22
-37 -55 -105 -72 -149 l-32 -82 -71 -20 c-137 -39 -191 -46 -346 -47 -136 0
-163 3 -221 23 -158 54 -272 151 -434 367 -217 288 -349 375 -571 377 -131 1
-181 -29 -146 -86 16 -25 195 -187 270 -244 20 -15 62 -62 94 -105 55 -74 80
-122 176 -329 183 -394 530 -574 992 -514 69 9 146 19 173 23 l47 6 0 -467 c0
-256 -1 -466 -3 -466 -2 0 -41 13 -88 29 -529 180 -987 472 -1384 882 -267
276 -467 561 -635 904 -65 133 -167 380 -188 455 -5 19 -22 76 -36 125 -156
528 -177 1163 -56 1714 97 442 289 887 547 1264 344 504 824 914 1378 1178
413 196 803 301 1275 343 101 9 561 -4 680 -19z"/>
</g>
</svg>
